<svg width="77" height="77" viewBox="0 0 77 77" fill="none" xmlns="http://www.w3.org/2000/svg">
<path d="M36.1225 29.4627C37.4882 28.0977 38.8872 26.7657 40.3114 25.463C41.3805 24.4847 42.466 23.5181 43.5992 22.6124C44.0131 22.2815 46.073 21.2924 46.2467 20.9085C46.2559 20.889 45.9554 20.3036 45.7599 20.7193C45.7172 20.8091 45.8061 21.2996 45.8107 21.3746C45.8493 22.0174 45.8023 22.6732 45.7611 23.3145C45.6649 24.7897 45.492 26.2611 45.3047 27.7265C45.043 29.7438 44.7445 31.7579 44.3975 33.7633C44.313 34.2518 44.7354 34.7984 45.1793 34.9548C46.5824 35.4494 54.7348 38.1707 54.3837 39.634C54.0561 40.9954 49.7804 41.8257 48.6746 42.1352C47.2121 42.5443 45.7307 42.9042 44.2404 43.2023C44.0793 43.235 43.9678 43.4032 43.9399 43.5528C43.5775 45.4694 43.1639 47.3771 42.7075 49.274C42.3549 50.7384 41.9814 52.2045 41.5234 53.6408C41.3404 54.2138 40.7942 56.6647 40.0686 56.9299C38.6908 57.4348 34.5734 46.978 33.9159 45.3552C33.7526 44.9548 33.3385 44.3968 32.8225 44.5251C31.1081 44.9543 29.3733 45.3134 27.6316 45.6166C26.5881 45.7987 20.619 47.0442 20.1979 45.8556C19.9672 45.2057 21.4928 43.5365 21.8497 43.0855C22.7688 41.9248 23.7999 40.8509 24.8443 39.8034C26.0962 38.5471 27.3917 37.3278 28.7302 36.1634C29.0648 35.8724 28.83 35.3805 28.6368 35.0894C27.7335 33.73 22.2552 25.8282 23.8264 24.7323C24.4094 24.3256 26.0897 25.1119 26.6712 25.3155C27.9585 25.7656 29.2099 26.3174 30.4435 26.8904C32.1377 27.6757 33.8091 28.5229 35.4468 29.4212C36.4838 29.9908 36.4164 28.4789 35.6839 28.079C33.5864 26.9286 31.4352 25.8572 29.2463 24.8913C27.9414 24.3151 23.8003 22.0362 22.446 23.488C21.119 24.9088 23.4502 28.5781 24.1097 29.8236C25.202 31.8801 26.4231 33.8752 27.7089 35.8149C27.6769 35.4568 27.646 35.1002 27.6155 34.7409C25.6622 36.4376 23.7747 38.2375 22.0332 40.1518C20.7901 41.5167 17.887 44.2188 18.9434 46.3329C20.0408 48.5279 23.8696 47.8137 25.7534 47.5885C28.4077 47.2719 31.0538 46.7406 33.6468 46.0912C33.2825 45.8136 32.9178 45.5387 32.5535 45.2611C34.0758 49.0201 35.665 52.9085 37.8807 56.317C38.4188 57.1465 39.5318 59.0002 40.789 58.6017C42.1294 58.1777 42.6628 55.4248 43.0138 54.3005C43.7891 51.8129 44.3669 49.2611 44.9041 46.714C45.0421 46.0584 45.1089 45.343 45.3122 44.7051C45.4796 44.1812 45.2009 44.7135 45.1274 44.7513C45.3495 44.6366 45.747 44.6206 45.9878 44.5674C47.9633 44.1331 56.7687 42.8069 55.8088 39.5538C55.2445 37.642 52.3353 36.5147 50.7483 35.7661C48.8913 34.8919 46.981 34.116 45.0455 33.4334C45.3071 33.8307 45.5658 34.2277 45.8274 34.625C46.2764 32.0216 46.6628 29.4008 46.9535 26.7739C47.1373 25.1123 48.1412 20.8887 46.4817 19.617C44.8272 18.3488 41.7644 21.7603 40.6995 22.6936C38.7429 24.4051 36.8522 26.1977 35.0139 28.0354C34.4393 28.6099 35.5775 30.0091 36.1225 29.4627Z" fill="white" fill-opacity="0.51"/>
<path d="M29.9232 10.5561C30.7368 12.5481 31.553 14.5405 32.3666 16.5325C32.499 16.8588 32.8585 17.4128 33.2775 17.3898C33.666 17.3685 33.7922 17.0464 33.6456 16.6894C32.832 14.6973 32.0157 12.705 31.2022 10.713C31.0698 10.3866 30.7103 9.83261 30.2913 9.85564C29.9055 9.87723 29.7778 10.2006 29.9232 10.5561Z" fill="white" fill-opacity="0.51"/>
<path d="M35.9718 9.38082C36.1354 11.4144 36.6341 13.3554 37.4506 15.2223C37.8568 16.15 39.2026 15.9182 38.7274 14.8332C38.0282 13.2356 37.6181 11.5618 37.4792 9.82341C37.4138 9.00503 35.8836 8.27573 35.9718 9.38082Z" fill="white" fill-opacity="0.51"/>
<path d="M13.6929 30.0496C15.1275 30.4213 16.5622 30.793 17.9968 31.1647C18.415 31.2725 18.4224 30.7386 18.339 30.4845C18.2054 30.0781 17.847 29.7295 17.4358 29.6212C16.0011 29.2495 14.5664 28.8779 13.1318 28.5062C12.7136 28.3984 12.7063 28.9322 12.7896 29.1864C12.9232 29.5928 13.2813 29.944 13.6929 30.0496Z" fill="white" fill-opacity="0.51"/>
<path d="M11.4708 36.8853C12.7233 36.5029 13.9941 36.5237 15.233 36.9527C15.6336 37.0914 15.9505 36.7871 15.9476 36.394C15.9431 35.9455 15.5655 35.5285 15.161 35.3879C13.7027 34.8824 12.1423 34.8522 10.6663 35.3038C9.78479 35.5705 10.685 37.1239 11.4708 36.8853Z" fill="white" fill-opacity="0.51"/>
<path d="M22.1904 52.5804C20.7026 53.5914 19.4608 54.8324 18.423 56.2996C18.0198 56.8703 19.242 58.1793 19.7284 57.492C20.708 56.1072 21.9028 54.9569 23.3036 54.0041C23.9139 53.5884 22.8232 52.1495 22.1904 52.5804Z" fill="white" fill-opacity="0.51"/>
<path d="M26.6743 56.337C26.0174 57.7765 25.7087 59.2877 25.7195 60.8684C25.724 61.6215 27.165 62.4597 27.1568 61.3658C27.1475 60.032 27.4391 58.7282 27.9923 57.5171C28.3043 56.836 27.021 55.5747 26.6743 56.337Z" fill="white" fill-opacity="0.51"/>
<path d="M55.63 25.3176C57.4844 24.7127 59.383 24.5693 61.3075 24.9018C62.1645 25.0497 61.3925 23.4624 60.7571 23.35C58.7464 23.0014 56.7145 23.1409 54.774 23.7738C54.0275 24.0185 54.9957 25.5237 55.63 25.3176Z" fill="white" fill-opacity="0.51"/>
<path d="M56.0044 30.5314C57.7251 30.8514 59.4431 31.171 61.1639 31.4909C61.583 31.5685 61.5979 31.0852 61.5076 30.8095C61.3822 30.4262 61.0126 30.0225 60.6028 29.9475C58.8821 29.6275 57.1641 29.3079 55.4433 28.988C55.0242 28.9104 55.0093 29.3937 55.0996 29.6694C55.2277 30.053 55.5962 30.4552 56.0044 30.5314Z" fill="white" fill-opacity="0.51"/>
<path d="M45.7176 54.1884C46.0833 56.3046 46.5753 58.3909 47.2009 60.4439C47.4351 61.2113 48.8754 61.6939 48.5301 60.5615C47.9427 58.6358 47.4767 56.6864 47.1335 54.7025C47.0662 54.3056 46.7696 53.8006 46.3469 53.6964C45.9988 53.6123 45.6431 53.7603 45.7176 54.1884Z" fill="white" fill-opacity="0.51"/>
<path d="M51.2916 52.3188C52.3993 54.3731 53.606 56.3623 54.9057 58.301C55.5294 59.2306 56.4621 58.4767 55.8488 57.5636C54.6389 55.7586 53.5266 53.8995 52.4968 51.9857C52.0372 51.1341 50.7218 51.2635 51.2916 52.3188Z" fill="white" fill-opacity="0.51"/>
</svg>
